<?xml version="1.0" encoding="UTF-8" standalone="no"?>
<svg
   xmlns:dc="http://purl.org/dc/elements/1.1/"
   xmlns:cc="http://creativecommons.org/ns#"
   xmlns:rdf="http://www.w3.org/1999/02/22-rdf-syntax-ns#"
   xmlns:svg="http://www.w3.org/2000/svg"
   xmlns="http://www.w3.org/2000/svg"
   xmlns:sodipodi="http://sodipodi.sourceforge.net/DTD/sodipodi-0.dtd"
   xmlns:inkscape="http://www.inkscape.org/namespaces/inkscape"
   version="1.1"
   id="svg2"
   xml:space="preserve"
   width="9694.1865"
   height="3978.5601"
   viewBox="0 0 9694.1865 3978.5601"
   sodipodi:docname="LOGOFUNDACION.svg"
   inkscape:version="1.0.1 (3bc2e813f5, 2020-09-07)"
   inkscape:export-filename="/home/sebastian/Documentos/Web/fundacionremansodepaz/media/logo.png"
   inkscape:export-xdpi="2.3116877"
   inkscape:export-ydpi="2.3116877"><metadata
     id="metadata8"><rdf:RDF><cc:Work
         rdf:about=""><dc:format>image/svg+xml</dc:format><dc:type
           rdf:resource="http://purl.org/dc/dcmitype/StillImage" /><dc:title></dc:title></cc:Work></rdf:RDF></metadata><defs
     id="defs6"><clipPath
       clipPathUnits="userSpaceOnUse"
       id="clipPath18"><path
         d="M 0,2983.917 H 7270.639 V 0 H 0 Z"
         id="path16" /></clipPath></defs><sodipodi:namedview
     pagecolor="#ffffff"
     bordercolor="#666666"
     borderopacity="1"
     objecttolerance="10"
     gridtolerance="10"
     guidetolerance="10"
     inkscape:pageopacity="0"
     inkscape:pageshadow="2"
     inkscape:window-width="1920"
     inkscape:window-height="1043"
     id="namedview4"
     showgrid="false"
     inkscape:zoom="0.082058987"
     inkscape:cx="6077.4424"
     inkscape:cy="3015.3"
     inkscape:window-x="1280"
     inkscape:window-y="0"
     inkscape:window-maximized="1"
     inkscape:current-layer="g14" /><g
     id="g10"
     inkscape:groupmode="layer"
     inkscape:label="LOGOFUNDACION"
     transform="matrix(1.3333333,0,0,-1.3333333,0,3978.56)"><g
       id="g12"
       transform="translate(111.70089,28.636823)"><g
         id="g14"
         clip-path="url(#clipPath18)"><g
           id="g1083"
           transform="translate(-122.92454,-18.472432)"><g
             id="g20"
             transform="matrix(1.0780864,0,0,1.0780864,943.78547,1218.8089)"><path
               d="m 0,0 c 226.422,-2.58 399.569,67.081 399.569,233.494 0,100.622 -114.162,167.703 -272.088,167.703 -13.318,0 -22.832,0 -34.248,-1.29 C 66.595,297.995 30.443,147.062 0,0 m -62.79,375.396 c -89.427,-28.379 -131.287,-78.691 -150.314,-118.681 0,0 -3.805,-3.87 -11.416,-3.87 -17.124,0 -119.871,41.28 -123.676,60.631 0,0 51.373,129.002 313.947,154.802 1.903,9.031 5.708,15.481 7.611,20.641 5.708,15.48 -3.805,36.121 47.568,36.121 34.249,0 81.817,-12.9 100.843,-27.091 -3.805,-7.74 -7.61,-16.77 -9.513,-25.801 237.839,-15.48 435.72,-136.742 435.72,-281.225 0,-154.803 -142.703,-247.684 -365.32,-270.904 83.719,-64.501 195.979,-153.513 275.893,-228.334 l 17.124,5.16 c 47.568,14.189 70.401,-70.952 79.914,-94.172 7.611,-18.061 11.416,-32.251 0,-42.571 -11.416,-10.321 -64.692,-39.991 -95.135,-42.571 -108.455,96.751 -363.418,323.796 -473.775,399.907 h -5.708 l -55.179,-270.905 c -3.805,-23.22 17.124,-29.671 9.514,-68.371 -9.514,-43.861 -28.541,-76.111 -58.984,-76.111 -39.957,0 -117.968,21.93 -127.482,30.96 34.249,206.404 131.287,632.112 188.368,842.385"
               style="fill:#413f74;fill-opacity:1;fill-rule:nonzero;stroke:none"
               id="path22" /></g><g
             id="g24"
             transform="matrix(1.0780864,0,0,1.0780864,1844.2703,1085.2957)"><path
               d="m 0,0 c 66.595,0 123.676,145.773 123.676,264.455 0,54.182 -13.319,60.631 -22.833,60.631 -7.611,0 -17.124,-5.16 -28.54,-23.22 C 26.638,232.205 -26.638,126.423 -47.568,32.251 -47.568,32.251 -38.055,0 0,0 m 100.843,394.748 c 72.303,0 156.023,-38.701 156.023,-157.384 0,-165.123 -66.595,-314.765 -216.909,-314.765 -81.817,0 -110.357,54.181 -110.357,54.181 0,0 -34.249,-68.372 -34.249,-172.863 0,-60.632 34.249,-105.782 131.287,-105.782 146.508,0 264.476,161.253 264.476,246.394 0,0 0,14.191 26.638,14.191 30.444,0 55.179,-25.801 55.179,-61.921 0,-112.233 -102.746,-301.866 -313.947,-301.866 -146.509,0 -283.504,91.591 -283.504,252.844 0,215.435 157.925,546.971 325.363,546.971"
               style="fill:#413f74;fill-opacity:1;fill-rule:nonzero;stroke:none"
               id="path26" /></g><g
             id="g28"
             transform="matrix(1.0780864,0,0,1.0780864,2644.2546,1195.1657)"><path
               d="m 0,0 c -58.984,-113.522 -150.314,-305.735 -148.412,-426.998 0,0 -24.734,-19.35 -64.692,-19.35 -85.622,0 -127.481,61.921 -127.481,167.702 0,223.175 89.427,534.071 133.189,534.071 58.984,0 119.871,-25.801 114.163,-45.151 -38.054,-127.712 -97.038,-292.836 -97.038,-376.687 h 7.611 c 72.303,143.192 138.897,276.065 197.882,371.527 7.611,11.611 24.735,11.611 41.859,11.611 51.373,0 127.481,-16.771 121.773,-58.052 -11.416,-91.592 -41.859,-234.784 -45.665,-336.696 h 7.611 c 72.304,143.193 135.093,308.316 241.644,447.638 7.612,11.611 24.736,11.611 41.86,11.611 51.373,0 138.898,-23.221 133.19,-64.501 -15.222,-131.583 -116.065,-326.377 -116.065,-470.86 0,-65.791 24.735,-98.042 78.01,-98.042 62.79,0 100.844,68.372 116.066,101.912 0,0 41.86,-2.58 41.86,-34.83 0,-55.471 -81.817,-154.803 -215.007,-154.803 -129.384,0 -165.535,92.881 -165.535,197.374 0,55.47 38.054,189.633 57.081,255.424 h -22.833 c -78.01,-114.812 -167.438,-356.046 -165.535,-477.308 0,0 -24.736,-19.351 -64.692,-19.351 C 15.222,-483.759 0,-428.288 -1.903,-330.246 -3.806,-223.174 3.805,-101.912 17.124,0 Z"
               style="fill:#413f74;fill-opacity:1;fill-rule:nonzero;stroke:none"
               id="path30" /></g><g
             id="g32"
             transform="matrix(1.0780864,0,0,1.0780864,3657.5774,815.4888)"><path
               d="m 0,0 c 112.26,0 215.006,308.316 215.006,354.757 0,0 -60.886,7.74 -87.525,28.381 39.957,37.41 64.692,82.561 64.692,129.002 0,11.61 0,42.571 -36.151,42.571 -138.897,0 -224.52,-308.316 -224.52,-443.769 C -68.498,30.961 -49.471,0 0,0 M 220.714,6.45 C 190.271,-38.7 112.26,-87.722 19.027,-87.722 c -140.8,0 -247.352,98.042 -247.352,255.425 0,233.495 157.925,465.699 386.25,465.699 129.384,0 186.465,-56.761 186.465,-95.462 0,-6.45 -1.902,-14.19 -1.902,-14.19 17.124,-3.87 91.33,-5.16 79.914,-34.831 C 363.417,344.437 315.85,210.274 315.85,108.362 c 0,-59.341 15.222,-99.332 79.913,-99.332 98.942,0 125.579,83.852 138.899,161.253 0,0 55.178,3.87 55.178,-34.83 0,-68.371 -78.011,-214.144 -222.617,-214.144 -87.525,0 -133.189,54.181 -136.995,85.141 z"
               style="fill:#413f74;fill-opacity:1;fill-rule:nonzero;stroke:none"
               id="path34" /></g><g
             id="g36"
             transform="matrix(1.0780864,0,0,1.0780864,4476.0297,1110.3296)"><path
               d="m 0,0 c -43.762,3.87 -89.427,7.74 -119.87,16.771 -38.055,10.32 -28.541,51.6 15.222,69.661 17.124,-1.29 47.567,-15.481 121.773,-15.481 39.956,176.734 79.913,334.116 100.843,379.268 5.709,15.479 -3.805,36.12 47.568,36.12 34.249,0 81.817,-12.901 100.844,-27.091 C 241.645,394.747 205.493,239.944 173.146,81.271 386.25,114.813 525.148,221.884 525.148,367.657 525.148,468.278 410.985,530.2 253.061,530.2 20.93,530.2 -57.081,447.639 -87.524,385.717 c 0,0 -3.806,-3.87 -11.416,-3.87 -17.125,0 -119.872,41.281 -123.677,60.632 0,0 60.887,159.962 410.985,159.962 260.672,0 485.192,-95.462 485.192,-263.165 C 673.56,170.283 473.775,18.061 156.022,-1.29 l -53.275,-265.745 c -7.611,-23.22 64.691,7.74 47.567,-29.67 -19.027,-41.281 -45.665,-73.531 -66.594,-99.332 -7.612,-9.03 -13.32,-15.481 -30.444,-15.481 -39.957,0 -117.968,21.931 -127.481,30.961 C -57.081,-276.065 -30.443,-135.452 0,0"
               style="fill:#413f74;fill-opacity:1;fill-rule:nonzero;stroke:none"
               id="path38" /></g><g
             id="g40"
             transform="matrix(1.0780864,0,0,1.0780864,5460.648,815.4888)"><path
               d="m 0,0 c 112.26,0 215.006,308.316 215.006,354.757 0,0 -60.887,7.74 -87.525,28.381 39.957,37.41 64.693,82.561 64.693,129.002 0,11.61 0,42.571 -36.152,42.571 -138.898,0 -224.52,-308.316 -224.52,-443.769 C -68.498,30.961 -49.471,0 0,0 M 220.714,6.45 C 190.271,-38.7 112.26,-87.722 19.027,-87.722 c -140.8,0 -247.352,98.042 -247.352,255.425 0,233.495 157.925,465.699 386.25,465.699 129.384,0 186.466,-56.761 186.466,-95.462 0,-6.45 -1.904,-14.19 -1.904,-14.19 17.125,-3.87 91.33,-5.16 79.914,-34.831 C 363.418,344.437 315.85,210.274 315.85,108.362 c 0,-59.341 15.221,-99.332 79.914,-99.332 98.94,0 125.579,83.852 138.897,161.253 0,0 55.179,3.87 55.179,-34.83 0,-68.371 -78.011,-214.144 -222.617,-214.144 -87.525,0 -133.19,54.181 -136.995,85.141 z"
               style="fill:#413f74;fill-opacity:1;fill-rule:nonzero;stroke:none"
               id="path42" /></g><g
             id="g44"
             transform="matrix(1.0780864,0,0,1.0780864,6514.9975,1288.3466)"><path
               d="m 0,0 c -106.552,-6.45 -266.379,-47.73 -338.682,-60.631 -13.319,-2.58 -51.373,65.791 -51.373,89.012 0,64.501 490.899,109.651 555.591,109.651 32.346,0 62.789,-47.73 62.789,-64.501 -72.303,-56.76 -479.482,-389.587 -502.315,-465.698 148.412,21.931 254.964,45.15 409.083,45.15 49.47,-5.16 72.303,-81.271 72.303,-90.301 0,-24.51 -232.13,-32.25 -298.726,-42.571 -79.913,-12.9 -195.979,-38.701 -268.281,-61.921 -66.596,-7.74 -66.596,49.021 -66.596,81.272 0,103.201 296.823,353.466 426.207,460.538"
               style="fill:#413f74;fill-opacity:1;fill-rule:nonzero;stroke:none"
               id="path46" /></g><g
             id="g48"
             transform="matrix(1.0780864,0,0,1.0780864,534.80164,388.3265)"><path
               d="m 0,0 c 22.673,7.334 56.974,13.752 93.018,18.794 4.069,10.544 8.139,20.17 12.79,28.422 15.696,-1.834 26.742,-5.96 34.881,-12.836 -1.163,-3.667 -2.325,-6.876 -2.907,-10.085 49.416,5.501 94.181,8.71 110.459,9.627 21.51,1.375 39.532,0 44.183,-4.584 2.326,-2.292 20.348,-19.253 20.348,-22.92 0,-3.209 -4.651,-7.335 -12.209,-7.335 -34.3,-0.917 -103.482,-5.042 -173.826,-13.294 -8.721,-33.005 -16.279,-66.469 -23.255,-100.849 28.487,5.042 56.392,9.168 70.345,10.085 12.79,0.917 29.649,2.75 33.137,-3.209 3.489,-6.418 9.302,-0.917 15.697,-6.876 2.325,-2.292 12.209,-11.46 12.209,-15.127 0,-3.209 -1.163,-9.626 -8.721,-9.626 -33.137,-0.917 -88.948,-8.71 -130.806,-15.586 -9.301,-50.425 -16.859,-103.141 -23.254,-157.692 -1.744,-13.293 -42.44,4.584 -46.509,9.168 5.232,38.048 13.371,88.473 22.673,139.814 -1.163,0 -2.325,-0.458 -3.488,-0.458 -15.116,-2.75 -33.138,23.837 -24.998,29.338 4.069,2.75 18.022,6.875 36.044,11.001 7.557,37.131 15.696,73.345 24.417,104.058 C 61.043,-22.92 42.439,-26.129 24.999,-29.338 9.883,-32.089 -9.883,-3.209 0,0"
               style="fill:#423d70;fill-opacity:1;fill-rule:nonzero;stroke:none"
               id="path50" /></g><g
             id="g52"
             transform="matrix(1.0780864,0,0,1.0780864,941.57766,152.59299)"><path
               d="m 0,0 c -7.558,-21.087 -25.58,-69.678 -52.323,-69.678 -25.579,0 -66.275,31.172 -66.275,62.344 0,53.633 36.045,168.692 57.555,168.692 7.558,0 23.254,-5.959 28.487,-12.377 C -53.485,92.14 -69.763,27.963 -69.763,-28.88 l 8.138,-2.292 c 41.858,53.634 74.996,146.69 81.972,195.281 0.582,4.125 4.652,5.5 9.883,5.5 16.86,0 38.37,-9.626 38.37,-17.419 0,-16.961 -27.905,-116.434 -27.905,-150.815 0,-10.543 4.651,-35.297 24.417,-35.297 24.999,0 35.463,42.173 35.463,42.173 5.232,0 15.697,-0.458 15.697,-11.46 0,-17.419 -30.231,-59.593 -63.368,-59.593 -44.184,0 -51.16,37.131 -49.416,63.26 z"
               style="fill:#423d70;fill-opacity:1;fill-rule:nonzero;stroke:none"
               id="path54" /></g><g
             id="g56"
             transform="matrix(1.0780864,0,0,1.0780864,1209.8317,244.51462)"><path
               d="m 0,0 c -23.835,-40.799 -54.648,-118.728 -54.066,-161.817 0,0 -7.558,-6.876 -19.767,-6.876 -26.161,0 -33.137,24.754 -33.137,59.592 0,97.64 15.115,189.78 50.578,189.78 6.976,0 20.348,-0.917 18.604,-12.377 -6.977,-44.007 -23.254,-86.639 -23.254,-132.021 h 2.325 c 22.092,50.883 44.183,105.434 76.739,154.941 2.326,4.126 7.558,4.126 12.79,4.126 15.697,0 42.439,-8.251 40.695,-22.92 C 66.856,25.67 36.044,-33.922 36.044,-94.89 c 0,-23.379 7.558,-34.839 23.836,-34.839 19.185,0 30.812,24.295 35.463,36.214 0,0 12.79,-0.917 12.79,-12.377 0,-19.712 -24.998,-55.008 -65.694,-55.008 -39.532,0 -50.578,33.004 -50.578,70.135 0,19.712 9.302,67.386 15.116,90.765 z"
               style="fill:#423d70;fill-opacity:1;fill-rule:nonzero;stroke:none"
               id="path58" /></g><g
             id="g60"
             transform="matrix(1.0780864,0,0,1.0780864,1424.1771,95.265958)"><path
               d="m 0,0 c 30.231,0 76.158,109.559 76.158,130.187 -5.813,0.917 -11.627,2.292 -17.441,9.167 4.651,12.377 14.534,33.922 14.534,49.05 0,7.334 -1.744,16.044 -10.464,16.044 C 20.929,204.448 -12.79,94.89 -12.79,30.255 -12.79,20.628 -11.627,0 0,0 M 69.182,14.669 C 61.624,-1.834 39.533,-33.005 13.371,-33.005 c -52.322,0 -69.763,51.341 -69.763,90.764 0,64.635 35.463,169.609 113.947,169.609 18.022,0 32.556,-11.001 32.556,-11.001 8.139,35.755 16.278,90.306 19.184,108.184 1.163,8.709 6.977,9.168 9.302,9.168 20.348,0 41.277,-5.96 38.951,-15.586 -8.72,-36.673 -49.996,-261.749 -49.996,-284.211 0,-15.127 6.976,-22.003 19.184,-22.003 19.185,0 31.394,29.796 35.463,57.3 0,0 16.86,1.376 16.86,-12.377 0,-24.295 -23.836,-76.095 -68.019,-76.095 -24.998,0 -40.114,15.586 -40.114,33.922 z"
               style="fill:#423d70;fill-opacity:1;fill-rule:nonzero;stroke:none"
               id="path62" /></g><g
             id="g64"
             transform="matrix(1.0780864,0,0,1.0780864,1717.5004,104.65609)"><path
               d="m 0,0 c 34.3,0 65.694,109.559 65.694,126.061 0,0 -18.604,2.751 -26.743,10.085 12.209,13.293 19.766,29.337 19.766,45.84 0,4.126 0,15.127 -11.046,15.127 -42.439,0 -68.6,-109.558 -68.6,-157.69 C -20.929,11.001 -15.115,0 0,0 M 67.438,2.292 C 58.136,-13.753 34.3,-31.172 5.813,-31.172 c -43.02,0 -75.576,34.839 -75.576,90.764 0,82.971 48.253,165.484 118.016,165.484 39.532,0 56.973,-20.17 56.973,-33.922 0,-2.292 -0.581,-5.042 -0.581,-5.042 5.232,-1.376 27.905,-1.834 24.417,-12.377 C 111.04,122.394 96.506,74.72 96.506,38.506 c 0,-21.087 4.651,-35.297 24.417,-35.297 30.231,0 38.369,29.796 42.439,57.3 0,0 16.86,1.376 16.86,-12.377 0,-24.295 -23.836,-76.095 -68.019,-76.095 -26.743,0 -40.696,19.253 -41.858,30.255 z"
               style="fill:#423d70;fill-opacity:1;fill-rule:nonzero;stroke:none"
               id="path66" /></g><g
             id="g68"
             transform="matrix(1.0780864,0,0,1.0780864,2056.5759,333.47044)"><path
               d="m 0,0 c 29.649,0 58.136,-22.004 58.136,-46.758 0,-43.09 -22.092,-63.26 -43.021,-63.26 -16.278,0 -25.579,8.252 -25.579,22.004 v 2.75 c 0,0 19.766,16.961 19.766,47.216 0,6.876 -3.489,11.002 -10.465,11.002 -30.231,0 -58.717,-71.97 -58.717,-142.105 0,-42.632 16.278,-55.926 40.695,-55.926 47.672,0 81.972,58.676 85.46,87.097 0,0 5.814,0.459 9.302,0.459 6.976,0 18.022,-4.126 18.022,-25.671 0,-16.044 -22.673,-92.14 -102.319,-92.14 -59.299,0 -99.413,40.799 -99.413,100.85 C -108.133,-97.182 -73.833,0 0,0"
               style="fill:#423d70;fill-opacity:1;fill-rule:nonzero;stroke:none"
               id="path70" /></g><g
             id="g72"
             transform="matrix(1.0780864,0,0,1.0780864,2245.8564,396.23318)"><path
               d="m 0,0 c 0,12.836 7.558,51.342 36.625,51.342 14.535,0 23.255,-2.751 19.186,-17.42 8.72,-3.667 17.44,-8.709 17.44,-21.086 0,-14.669 -12.208,-41.715 -48.834,-41.715 C 15.115,-28.879 0,-20.628 0,0 m -9.883,-69.677 c 1.744,5.042 6.395,5.959 10.465,5.959 -1.164,0 47.671,-1.375 42.439,-16.961 -17.441,-50.425 -44.184,-139.355 -43.603,-175.11 0,-16.961 8.14,-25.213 17.441,-25.213 36.045,0 46.509,49.967 48.253,68.303 0,0 21.511,4.584 21.511,-13.752 0,-28.88 -20.929,-81.597 -85.46,-81.597 -33.138,0 -49.997,18.795 -49.997,55.009 0,48.133 27.324,150.815 38.951,183.362"
               style="fill:#423d70;fill-opacity:1;fill-rule:nonzero;stroke:none"
               id="path74" /></g><g
             id="g76"
             transform="matrix(1.0780864,0,0,1.0780864,2450.1796,102.67888)"><path
               d="m 0,0 c 54.066,0 72.089,122.395 73.251,149.439 0.582,13.294 4.07,45.841 -19.185,45.841 -33.718,0 -61.042,-80.22 -66.856,-106.349 -0.581,-1.834 -13.371,1.833 -16.859,4.126 0,0 -3.488,-12.836 -4.07,-29.797 C -35.463,28.421 -23.835,0 0,0 m 5.232,225.535 c 7.558,-3.209 13.372,-7.335 15.116,-11.46 0,0 8.139,5.501 20.347,5.501 61.043,0 70.926,-44.466 69.182,-92.139 C 107.552,77.012 85.46,-32.088 10.464,-32.088 c -61.042,0 -83.134,63.26 -81.39,113.684 2.907,59.592 39.533,135.229 76.158,143.939"
               style="fill:#423d70;fill-opacity:1;fill-rule:nonzero;stroke:none"
               id="path78" /></g><g
             id="g80"
             transform="matrix(1.0780864,0,0,1.0780864,2746.6371,244.51462)"><path
               d="m 0,0 c -23.835,-40.799 -54.647,-118.728 -54.066,-161.817 0,0 -7.558,-6.876 -19.767,-6.876 -26.161,0 -33.137,24.754 -33.137,59.592 0,97.64 15.116,189.78 50.578,189.78 6.976,0 20.348,-0.917 18.604,-12.377 -6.977,-44.007 -23.254,-86.639 -23.254,-132.021 h 2.325 c 22.092,50.883 44.183,105.434 76.739,154.941 2.326,4.126 7.558,4.126 12.79,4.126 15.697,0 42.439,-8.251 40.695,-22.92 C 66.856,25.67 36.044,-33.922 36.044,-94.89 c 0,-23.379 7.558,-34.839 23.836,-34.839 19.185,0 30.812,24.295 35.463,36.214 0,0 12.79,-0.917 12.79,-12.377 0,-19.712 -24.998,-55.008 -65.694,-55.008 -39.532,0 -50.578,33.004 -50.578,70.135 0,19.712 9.302,67.386 15.116,90.765 z"
               style="fill:#423d70;fill-opacity:1;fill-rule:nonzero;stroke:none"
               id="path82" /></g><g
             id="g84"
             transform="matrix(1.0780864,0,0,1.0780864,3167.8119,247.97312)"><path
               d="m 0,0 c 69.182,-0.916 122.086,23.838 122.086,82.972 0,35.756 -34.882,59.592 -83.135,59.592 -4.069,0 -6.976,0 -10.464,-0.459 C 20.348,105.892 9.302,52.259 0,0 m -19.185,133.396 c -27.324,-10.084 -40.113,-27.962 -45.927,-42.173 0,0 -1.163,-1.375 -3.488,-1.375 -5.233,0 -36.626,14.669 -37.789,21.545 0,0 15.697,45.84 95.925,55.008 0.581,3.209 1.744,5.501 2.325,7.334 1.744,5.501 -1.163,12.836 14.534,12.836 10.465,0 24.999,-4.584 30.812,-9.627 -1.163,-2.75 -2.325,-5.959 -2.907,-9.168 72.671,-5.501 133.132,-48.59 133.132,-99.931 0,-55.009 -43.602,-88.014 -111.621,-96.266 25.58,-22.92 59.88,-54.55 84.297,-81.138 l 5.232,1.834 c 14.534,5.042 21.511,-25.212 24.417,-33.463 2.326,-6.417 3.489,-11.46 0,-15.127 -3.488,-3.667 -19.766,-14.211 -29.068,-15.127 -33.137,34.38 -111.04,115.058 -144.758,142.104 h -1.744 l -16.86,-96.265 c -1.162,-8.251 5.233,-10.543 2.907,-24.294 -2.907,-15.586 -8.72,-27.046 -18.022,-27.046 -12.209,0 -36.045,7.793 -38.951,11.001 10.464,73.344 40.114,224.618 57.554,299.338"
               style="fill:#423d70;fill-opacity:1;fill-rule:nonzero;stroke:none"
               id="path86" /></g><g
             id="g88"
             transform="matrix(1.0780864,0,0,1.0780864,3467.3973,200.52999)"><path
               d="m 0,0 c 20.348,0 37.788,51.8 37.788,93.974 0,19.253 -4.069,21.545 -6.976,21.545 -2.326,0 -5.232,-1.834 -8.721,-8.251 C 8.139,82.514 -8.139,44.924 -14.534,11.461 -14.534,11.461 -11.627,0 0,0 m 30.812,140.272 c 22.092,0 47.671,-13.751 47.671,-55.925 0,-58.676 -20.347,-111.851 -66.275,-111.851 -24.998,0 -33.718,19.253 -33.718,19.253 0,0 -10.465,-24.295 -10.465,-61.426 0,-21.545 10.465,-37.59 40.114,-37.59 44.765,0 80.809,57.301 80.809,87.556 0,0 0,5.042 8.139,5.042 9.302,0 16.859,-9.168 16.859,-22.003 0,-39.881 -31.393,-107.266 -95.924,-107.266 -44.765,0 -86.623,32.546 -86.623,89.847 0,76.553 48.253,194.363 99.413,194.363"
               style="fill:#423d70;fill-opacity:1;fill-rule:nonzero;stroke:none"
               id="path90" /></g><g
             id="g92"
             transform="matrix(1.0780864,0,0,1.0780864,3736.2729,239.57267)"><path
               d="m 0,0 c -18.022,-40.34 -45.927,-108.643 -45.346,-151.732 0,0 -7.558,-6.876 -19.766,-6.876 -26.161,0 -38.951,22.003 -38.951,59.592 0,79.304 27.324,189.78 40.695,189.78 18.022,0 36.625,-9.168 34.882,-16.044 -11.628,-45.382 -29.65,-104.058 -29.65,-133.855 h 2.325 c 22.092,50.883 42.44,98.099 60.462,132.021 2.326,4.126 7.557,4.126 12.79,4.126 15.697,0 38.951,-5.959 37.207,-20.628 C 51.16,23.837 41.858,-27.046 40.695,-63.26 h 2.326 c 22.091,50.883 41.276,109.559 73.833,159.066 2.325,4.126 7.557,4.126 12.79,4.126 15.696,0 42.439,-8.251 40.695,-22.92 -4.652,-46.758 -35.463,-115.977 -35.463,-167.318 0,-23.379 7.558,-34.839 23.835,-34.839 19.185,0 30.812,24.295 35.463,36.214 0,0 12.79,-0.917 12.79,-12.377 0,-19.712 -24.998,-55.008 -65.693,-55.008 -39.533,0 -50.579,33.004 -50.579,70.135 0,19.712 11.627,67.386 17.441,90.765 h -6.977 c -23.835,-40.799 -51.159,-126.52 -50.578,-169.61 0,0 -7.557,-6.876 -19.766,-6.876 -26.161,0 -30.812,19.712 -31.393,54.55 C -1.163,-79.305 1.163,-36.215 5.232,0 Z"
               style="fill:#423d70;fill-opacity:1;fill-rule:nonzero;stroke:none"
               id="path94" /></g><g
             id="g96"
             transform="matrix(1.0780864,0,0,1.0780864,4070.3365,104.65609)"><path
               d="m 0,0 c 34.3,0 65.693,109.559 65.693,126.061 0,0 -18.603,2.751 -26.743,10.085 12.209,13.293 19.767,29.337 19.767,45.84 0,4.126 0,15.127 -11.046,15.127 C 5.231,197.113 -20.93,87.555 -20.93,39.423 -20.93,11.001 -15.116,0 0,0 M 67.438,2.292 C 58.136,-13.753 34.3,-31.172 5.813,-31.172 c -43.02,0 -75.577,34.839 -75.577,90.764 0,82.971 48.253,165.484 118.017,165.484 39.532,0 56.973,-20.17 56.973,-33.922 0,-2.292 -0.581,-5.042 -0.581,-5.042 5.232,-1.376 27.905,-1.834 24.417,-12.377 C 111.039,122.394 96.505,74.72 96.505,38.506 c 0,-21.087 4.651,-35.297 24.418,-35.297 30.23,0 38.369,29.796 42.438,57.3 0,0 16.86,1.376 16.86,-12.377 0,-24.295 -23.835,-76.095 -68.019,-76.095 -26.742,0 -40.695,19.253 -41.858,30.255 z"
               style="fill:#423d70;fill-opacity:1;fill-rule:nonzero;stroke:none"
               id="path98" /></g><g
             id="g100"
             transform="matrix(1.0780864,0,0,1.0780864,4407.5312,244.51462)"><path
               d="m 0,0 c -23.836,-40.799 -54.648,-118.728 -54.066,-161.817 0,0 -7.558,-6.876 -19.767,-6.876 -26.161,0 -33.138,24.754 -33.138,59.592 0,97.64 15.116,189.78 50.578,189.78 6.977,0 20.348,-0.917 18.604,-12.377 -6.976,-44.007 -23.254,-86.639 -23.254,-132.021 h 2.325 c 22.092,50.883 44.184,105.434 76.739,154.941 2.327,4.126 7.558,4.126 12.791,4.126 15.697,0 42.439,-8.251 40.695,-22.92 C 66.856,25.67 36.044,-33.922 36.044,-94.89 c 0,-23.379 7.558,-34.839 23.836,-34.839 19.184,0 30.811,24.295 35.463,36.214 0,0 12.79,-0.917 12.79,-12.377 0,-19.712 -24.999,-55.008 -65.695,-55.008 -39.532,0 -50.578,33.004 -50.578,70.135 0,19.712 9.302,67.386 15.116,90.765 z"
               style="fill:#423d70;fill-opacity:1;fill-rule:nonzero;stroke:none"
               id="path102" /></g><g
             id="g104"
             transform="matrix(1.0780864,0,0,1.0780864,4608.7144,263.78747)"><path
               d="m 0,0 c 0,0 106.971,-37.589 106.971,-117.352 0,-52.715 -35.463,-72.427 -75.577,-72.427 -48.834,0 -95.924,43.09 -95.924,79.304 0,16.961 13.952,53.175 34.881,53.175 8.139,0 26.162,-12.836 26.162,-16.961 0,-14.669 -24.999,-50.883 -24.999,-55.009 0,-4.126 7.557,-26.587 41.276,-26.587 36.626,0 54.066,21.086 54.066,52.258 0,46.757 -54.647,80.679 -93.017,84.346 -10.464,6.876 -16.277,22.921 -15.115,34.839 2.326,19.253 143.595,59.135 152.316,59.135 5.814,0 19.185,-11.919 19.185,-20.17 0,-17.42 -39.533,-42.632 -54.067,-42.632 -5.813,0 -7.557,12.377 -13.371,12.377 C 47.672,23.838 3.488,5.501 -0.581,1.834 Z"
               style="fill:#423d70;fill-opacity:1;fill-rule:nonzero;stroke:none"
               id="path106" /></g><g
             id="g108"
             transform="matrix(1.0780864,0,0,1.0780864,4875.7082,102.67888)"><path
               d="m 0,0 c 54.066,0 72.089,122.395 73.252,149.439 0.581,13.294 4.069,45.841 -19.186,45.841 -33.718,0 -61.043,-80.22 -66.856,-106.349 -0.581,-1.834 -13.371,1.833 -16.859,4.126 0,0 -3.489,-12.836 -4.07,-29.797 C -35.463,28.421 -23.836,0 0,0 m 5.232,225.535 c 7.558,-3.209 13.372,-7.335 15.116,-11.46 0,0 8.138,5.501 20.347,5.501 61.043,0 70.926,-44.466 69.182,-92.139 C 107.552,77.012 85.46,-32.088 10.465,-32.088 c -61.043,0 -83.135,63.26 -81.391,113.684 2.907,59.592 39.532,135.229 76.158,143.939"
               style="fill:#423d70;fill-opacity:1;fill-rule:nonzero;stroke:none"
               id="path110" /></g><g
             id="g112"
             transform="matrix(1.0780864,0,0,1.0780864,5305.0382,95.265958)"><path
               d="m 0,0 c 30.23,0 76.158,109.559 76.158,130.187 -5.813,0.917 -11.627,2.292 -17.44,9.167 4.65,12.377 14.533,33.922 14.533,49.05 0,7.334 -1.744,16.044 -10.464,16.044 C 20.929,204.448 -12.79,94.89 -12.79,30.255 -12.79,20.628 -11.627,0 0,0 m 69.182,14.669 c -7.558,-16.503 -29.65,-47.674 -55.811,-47.674 -52.322,0 -69.763,51.341 -69.763,90.764 0,64.635 35.463,169.609 113.947,169.609 18.022,0 32.555,-11.001 32.555,-11.001 8.14,35.755 16.279,90.306 19.186,108.184 1.162,8.709 6.976,9.168 9.302,9.168 20.347,0 41.276,-5.96 38.951,-15.586 -8.721,-36.673 -49.997,-261.749 -49.997,-284.211 0,-15.127 6.976,-22.003 19.184,-22.003 19.185,0 31.394,29.796 35.463,57.3 0,0 16.86,1.376 16.86,-12.377 0,-24.295 -23.836,-76.095 -68.019,-76.095 -24.999,0 -40.114,15.586 -40.114,33.922 z"
               style="fill:#423d70;fill-opacity:1;fill-rule:nonzero;stroke:none"
               id="path114" /></g><g
             id="g116"
             transform="matrix(1.0780864,0,0,1.0780864,5588.9602,200.52999)"><path
               d="m 0,0 c 20.348,0 37.788,51.8 37.788,93.974 0,19.253 -4.069,21.545 -6.976,21.545 -2.326,0 -5.232,-1.834 -8.72,-8.251 C 8.139,82.514 -8.14,44.924 -14.534,11.461 -14.534,11.461 -11.627,0 0,0 m 30.812,140.272 c 22.091,0 47.671,-13.751 47.671,-55.925 0,-58.676 -20.347,-111.851 -66.275,-111.851 -24.998,0 -33.719,19.253 -33.719,19.253 0,0 -10.464,-24.295 -10.464,-61.426 0,-21.545 10.464,-37.59 40.114,-37.59 44.764,0 80.809,57.301 80.809,87.556 0,0 0,5.042 8.139,5.042 9.302,0 16.859,-9.168 16.859,-22.003 0,-39.881 -31.393,-107.266 -95.924,-107.266 -44.765,0 -86.623,32.546 -86.623,89.847 0,76.553 48.253,194.363 99.413,194.363"
               style="fill:#423d70;fill-opacity:1;fill-rule:nonzero;stroke:none"
               id="path118" /></g><g
             id="g120"
             transform="matrix(1.0780864,0,0,1.0780864,5982.5607,209.42625)"><path
               d="m 0,0 c -13.371,1.375 -27.323,2.75 -36.625,5.959 -11.628,3.667 -8.721,18.336 4.65,24.754 5.233,-0.458 14.535,-5.501 37.207,-5.501 12.209,62.802 24.417,118.726 30.813,134.771 1.744,5.5 -1.163,12.835 14.534,12.835 10.464,0 24.998,-4.584 30.812,-9.627 -7.558,-22.92 -18.604,-77.928 -28.487,-134.312 65.113,11.919 107.552,49.967 107.552,101.767 0,35.754 -34.882,57.758 -83.135,57.758 -70.925,0 -94.761,-29.338 -104.063,-51.342 0,0 -1.163,-1.375 -3.488,-1.375 -5.233,0 -36.626,14.669 -37.789,21.545 0,0 18.604,56.842 125.574,56.842 79.646,0 148.247,-33.922 148.247,-93.513 0,-60.052 -61.043,-114.144 -158.13,-121.02 L 31.394,-94.89 c -2.326,-8.252 19.766,2.75 14.534,-10.544 -5.814,-14.669 -13.952,-26.128 -20.348,-35.296 -2.325,-3.209 -4.069,-5.501 -9.302,-5.501 -12.208,0 -36.044,7.793 -38.951,11.002 C -17.44,-98.099 -9.302,-48.133 0,0"
               style="fill:#423d70;fill-opacity:1;fill-rule:nonzero;stroke:none"
               id="path122" /></g><g
             id="g124"
             transform="matrix(1.0780864,0,0,1.0780864,6307.8523,104.65609)"><path
               d="m 0,0 c 34.3,0 65.693,109.559 65.693,126.061 0,0 -18.603,2.751 -26.743,10.085 12.209,13.293 19.767,29.337 19.767,45.84 0,4.126 0,15.127 -11.046,15.127 C 5.231,197.113 -20.93,87.555 -20.93,39.423 -20.93,11.001 -15.116,0 0,0 M 67.438,2.292 C 58.136,-13.753 34.3,-31.172 5.813,-31.172 c -43.02,0 -75.577,34.839 -75.577,90.764 0,82.971 48.253,165.484 118.017,165.484 39.532,0 56.973,-20.17 56.973,-33.922 0,-2.292 -0.581,-5.042 -0.581,-5.042 5.232,-1.376 27.905,-1.834 24.417,-12.377 C 111.039,122.394 96.505,74.72 96.505,38.506 c 0,-21.087 4.651,-35.297 24.418,-35.297 30.23,0 38.369,29.796 42.438,57.3 0,0 16.86,1.376 16.86,-12.377 0,-24.295 -23.835,-76.095 -68.019,-76.095 -26.742,0 -40.695,19.253 -41.858,30.255 z"
               style="fill:#423d70;fill-opacity:1;fill-rule:nonzero;stroke:none"
               id="path126" /></g><g
             id="g128"
             transform="matrix(1.0780864,0,0,1.0780864,6654.4486,272.68383)"><path
               d="m 0,0 c -32.556,-2.292 -81.39,-16.961 -103.481,-21.545 -4.071,-0.917 -15.698,23.378 -15.698,31.63 0,22.92 149.991,38.964 169.758,38.964 9.883,0 19.185,-16.961 19.185,-22.92 -22.092,-20.17 -146.503,-138.439 -153.48,-165.484 45.347,7.793 77.903,16.044 124.992,16.044 15.117,-1.834 22.092,-28.879 22.092,-32.088 0,-8.71 -70.926,-11.46 -91.273,-15.127 -24.417,-4.584 -59.88,-13.753 -81.972,-22.004 -20.348,-2.75 -20.348,17.42 -20.348,28.88 0,36.671 90.693,125.602 130.225,163.65"
               style="fill:#423d70;fill-opacity:1;fill-rule:nonzero;stroke:none"
               id="path130" /></g><g
             id="g132"
             transform="matrix(1.0780864,0,0,1.0780864,2199.3282,1798.8563)"><path
               d="m 0,0 c 0,-72.307 -65.131,-130.925 -145.472,-130.925 -80.342,0 -145.473,58.618 -145.473,130.925 0,72.308 65.131,130.926 145.473,130.926 C -65.131,130.926 0,72.308 0,0"
               style="fill:#d72f2f;fill-opacity:1;fill-rule:nonzero;stroke:none"
               id="path134" /></g><g
             id="g136"
             transform="matrix(1.0780864,0,0,1.0780864,2701.2305,2228.1336)"><path
               d="m 0,0 c 0,-94.009 -84.677,-170.22 -189.131,-170.22 -104.456,0 -189.135,76.211 -189.135,170.22 0,94.011 84.679,170.222 189.135,170.222 C -84.677,170.222 0,94.011 0,0"
               style="fill:#f5e21d;fill-opacity:1;fill-rule:nonzero;stroke:none"
               id="path138" /></g><g
             id="g140"
             transform="matrix(1.0780864,0,0,1.0780864,3536.5585,2488.163)"><path
               d="m 0,0 c 0,-133.206 -119.984,-241.193 -267.989,-241.193 -148.009,0 -267.995,107.987 -267.995,241.193 0,133.207 119.986,241.195 267.995,241.195 C -119.984,241.195 0,133.207 0,0"
               style="fill:#279bd9;fill-opacity:1;fill-rule:nonzero;stroke:none"
               id="path142" /></g><g
             id="g144"
             transform="matrix(1.0780864,0,0,1.0780864,4489.4237,2608.8065)"><path
               d="m 0,0 c 0,-158.514 -142.779,-287.018 -318.904,-287.018 -176.13,0 -318.911,128.504 -318.911,287.018 0,158.516 142.781,287.02 318.911,287.02 C -142.779,287.02 0,158.516 0,0"
               style="fill:#e11283;fill-opacity:1;fill-rule:nonzero;stroke:none"
               id="path146" /></g><g
             id="g148"
             transform="matrix(1.0780864,0,0,1.0780864,5692.5629,2362.109)"><path
               d="m 0,0 c 0,-210.737 -189.816,-381.575 -423.964,-381.575 -234.154,0 -423.976,170.838 -423.976,381.575 0,210.737 189.822,381.576 423.976,381.576 C -189.816,381.576 0,210.737 0,0"
               style="fill:#1ba351;fill-opacity:1;fill-rule:nonzero;stroke:none"
               id="path150" /></g><g
             id="g152"
             transform="matrix(1.0780864,0,0,1.0780864,2650.4715,442.57721)"><path
               d="m 0,0 -101.105,-82.463 h -11.653 L -76.771,0 Z"
               style="fill:#231f20;fill-opacity:1;fill-rule:nonzero;stroke:none"
               id="path154" /></g></g></g></g></g></svg>
